OpenSim_Sub04_CSBaseline_RCS.mot
version=1
nRows=54
nColumns=11
inDegrees=no
endheader
time	Top_Thigh	Med_Thigh	Bot_Thigh	Top_Shank	2nd_Top_Shank	2nd_Bot_Shank	Bot_Shank	BNOx	BNOy	BNOZ
40.41000000	1403.27751146	1342.12015307	1277.58262530	1101.41451857	1229.78578736	1121.05735182	1041.22610121	27.77234406	-70.89992909	140.15372078
40.42000000	1403.16923970	1341.88230792	1268.82239410	1101.38034643	1228.83276812	1121.02081592	1041.39031748	29.19097752	-70.40886266	139.32789893
40.43000000	1401.85057821	1341.04365864	1239.34489405	1100.81148062	1227.38165124	1120.59537351	1041.28505979	30.78669783	-69.80701136	138.86608580
40.44000000	1398.93848917	1339.42115246	1182.90256349	1099.53220169	1225.30433541	1119.65878731	1040.81593653	32.54257359	-69.07622842	138.17498247
40.45000000	1394.37018401	1336.99080185	1098.78148838	1097.51619266	1222.60319766	1118.19088048	1039.96017498	34.44195622	-68.21004983	136.90549790
40.46000000	1388.62571895	1333.99824601	995.64767159	1094.99038398	1219.50178486	1116.34447576	1038.81640150	36.46867647	-67.22181473	135.12249025
40.47000000	1382.23773303	1330.71524161	883.07570440	1092.20623701	1216.24506753	1114.28915355	1037.49500177	38.60661155	-66.12678049	132.93091503
40.48000000	1375.73886528	1327.41354531	770.64017806	1089.41521311	1213.07801622	1112.19449422	1036.10636149	40.83963865	-64.94020448	130.43572772
40.49000000	1369.66175473	1324.36491377	667.91568384	1086.86877364	1210.24560147	1110.23007817	1034.76086636	43.15163498	-63.67734408	127.74188382
40.50000000	1364.53904041	1321.84110367	584.47681300	1084.81837995	1207.99279380	1108.56548579	1033.56890207	45.52647774	-62.35345665	124.95433881
40.51000000	1360.90336135	1320.11387166	529.89815681	1083.51549341	1206.56456375	1107.37029747	1032.64085432	47.94804411	-60.98379957	122.17804821
40.52000000	1359.28735659	1319.45497442	513.75430652	1083.21157536	1206.20588187	1106.81409359	1032.08710879	50.40021131	-59.58363021	119.51796748
40.53000000	1360.22341654	1320.13603949	545.61516638	1084.15797088	1207.16159847	1107.06638363	1032.01801202	52.86684540	-58.16820952	117.07903689
40.54000000	1363.91399553	1322.25736374	628.83094636	1086.45170842	1209.51704053	1108.20256524	1032.49193598	55.31703813	-56.75755603	114.94596229
40.55000000	1369.58118786	1325.41015824	748.27088102	1089.73128559	1212.88353311	1110.01839561	1033.41281727	57.67598140	-55.38582470	113.14332579
40.56000000	1376.26583430	1329.09151191	885.38735705	1093.55042469	1216.78476561	1112.25793071	1034.65603981	59.86075070	-54.08978409	111.68459358
40.57000000	1383.00877566	1332.79851367	1021.63276115	1097.46284806	1220.74442740	1114.66522652	1036.09698748	61.78842151	-52.90620280	110.58323182
40.58000000	1388.85085271	1336.02825244	1138.45948001	1101.02227800	1224.28620790	1116.98433902	1037.61104420	63.37606932	-51.87184938	109.85270668
40.59000000	1392.83290626	1338.27781715	1217.31990033	1103.78243683	1226.93379650	1118.95932418	1039.07359386	64.54076963	-51.02349241	109.50648434
40.60000000	1394.00375925	1339.04829288	1239.82264262	1105.30046663	1228.21462162	1120.33585801	1040.36045485	65.20059090	-50.39769426	109.55720507
40.61000000	1392.02981696	1338.14994910	1199.66419547	1105.39809805	1227.94540272	1120.98495884	1041.38106256	65.35042886	-50.01506245	109.95360928
40.62000000	1387.62432962	1335.91714425	1111.03082288	1104.34555771	1226.43322754	1120.99010899	1042.10183546	65.11540681	-49.86915995	110.53612267
40.63000000	1381.60195040	1332.73500279	990.09353697	1102.45651591	1224.03268351	1120.45537112	1042.49471175	64.63326255	-49.95093006	111.13467900
40.64000000	1374.77733246	1328.98864921	853.02334981	1100.04464297	1221.09835807	1119.48480793	1042.53162959	64.04173392	-50.25131606	111.57921205
40.65000000	1367.96512897	1325.06320798	715.99127352	1097.42360920	1217.98483864	1118.18248208	1042.18452716	63.47855871	-50.76126126	111.69965557
40.66000000	1361.97999310	1321.34380357	595.16832019	1094.90708491	1215.04671265	1116.65245627	1041.42534264	63.08147476	-51.47170893	111.32594334
40.67000000	1357.59604287	1318.19948494	505.92677945	1092.79450810	1212.62260839	1114.99672749	1040.23118824	62.97135386	-52.37363478	110.31260411
40.68000000	1354.98087032	1315.75876368	451.68768608	1091.17235920	1210.81235812	1113.28638385	1038.65659495	63.01670227	-53.45849909	108.88218064
40.69000000	1353.83516260	1313.96498525	426.67197525	1089.96318346	1209.53196846	1111.56871976	1036.81569092	62.89175477	-54.71813520	107.54051359
40.70000000	1353.84759647	1312.75673197	424.86392363	1089.08530916	1208.69271738	1109.89041757	1034.82413734	62.26574879	-56.14438608	106.80073101
40.71000000	1354.70684866	1312.07258619	440.24780787	1088.45706458	1208.20588285	1108.29815964	1032.79759539	60.80792177	-57.72909467	107.17596097
40.72000000	1356.10159592	1311.85113023	466.80790462	1087.99677799	1207.98274285	1106.83862833	1030.85172626	58.18751113	-59.46410391	109.17933154
40.73000000	1357.72051498	1312.03094644	498.52849053	1087.62277768	1207.93457535	1105.55850597	1029.10219113	54.07375432	-61.34125676	113.32397077
40.74000000	1359.25228260	1312.55061716	529.39384227	1087.25339191	1207.97265834	1104.50447493	1027.66465121	48.13588876	-63.35239615	120.12300672
40.75000000	1360.39013353	1313.34855447	553.47220867	1086.80843236	1208.00965863	1103.72236814	1026.65276526	40.06505861	-65.48825434	130.06349154
40.76000000	1361.00449535	1314.35655246	568.09625718	1086.26537719	1208.01223431	1103.22499708	1026.10234873	30.40403160	-67.69638476	142.61877578
40.77000000	1361.19597542	1315.49780814	574.83925044	1085.67661541	1208.01718008	1102.98227725	1025.94809575	20.80186463	-69.86825010	155.94537579
40.78000000	1361.08056439	1316.69494399	575.55785725	1085.09954247	1208.06597796	1102.96125733	1026.11794238	12.98154978	-71.89156438	168.11180167
40.79000000	1360.77425292	1317.87058248	572.10874639	1084.59155379	1208.20010997	1103.12898600	1026.53982466	8.66607910	-73.65404163	177.18656352
40.80000000	1360.39303164	1318.94734609	566.34858662	1084.21004481	1208.46105815	1103.45251194	1027.14167864	9.57844466	-75.04339589	181.23817145
40.81000000	1360.05289121	1319.84785728	560.13404674	1084.01241096	1208.89030452	1103.89888383	1027.85144036	17.44163853	-75.94734118	178.33513555
40.82000000	1359.85675585	1320.50449720	555.14266089	1084.04814143	1209.52256206	1104.43537151	1028.60106110	33.69065341	-76.27073175	166.85032217
40.83000000	1359.81098069	1320.92176977	551.72804633	1084.30829348	1210.34251616	1105.03087947	1029.35216723	57.63198677	-76.04509864	147.40598049
40.84000000	1359.87863832	1321.13650454	549.65043688	1084.75773494	1211.31242973	1105.65504482	1030.07968558	87.61813816	-75.35874984	121.63253973
40.85000000	1360.02259716	1321.18568353	548.66726734	1085.36121013	1212.39445991	1106.27750814	1030.75860572	121.99710719	-74.30026115	91.16518470
40.86000000	1360.20572564	1321.10628878	548.53597256	1086.08346338	1213.55076382	1106.86790998	1031.36391723	159.11689342	-72.95820837	57.63910019
40.87000000	1360.39089216	1320.93530231	549.01398734	1086.88923899	1214.74349861	1107.39589094	1031.87060966	197.32549646	-71.42116729	22.68947100
40.88000000	1360.54096517	1320.70970615	549.85874652	1087.74328129	1215.93482141	1107.83109157	1032.25367260	234.97091588	-69.77771372	-12.04851808
40.89000000	1360.61881306	1320.46648232	550.82768492	1088.61033460	1217.08688936	1108.14315245	1032.48809561	270.40115127	-68.11642344	-44.93968226
40.90000000	1360.58730428	1320.24261286	551.67823736	1089.45514322	1218.16185958	1108.30171416	1032.54886826	301.96420222	-66.52587226	-74.34883674
40.91000000	1360.40930723	1320.07507979	552.16783866	1090.24245149	1219.12188923	1108.27641726	1032.41098012	328.00806831	-65.09463599	-98.64079672
40.92000000	1360.04769035	1320.00086514	552.05392366	1090.93700370	1219.92913542	1108.03690232	1032.04942075	346.88074912	-63.91129040	-116.18037741
40.93000000	1359.49872589	1320.03793448	551.14307545	1091.50023991	1220.53995125	1107.56339814	1031.44756365	357.37056772	-63.04752788	-125.77868348
40.94000000	1358.93936015	1320.10139755	549.50770941	1091.87572798	1220.87929698	1106.89340285	1030.63412901	360.64745950	-62.48372201	-128.66070076
